# Blender 4.0.2
# www.blender.org
mtllib snake_body2.mtl
o 柱体
v -1.000000 -1.000000 0.000000
v 1.000000 -1.000000 0.000000
v -1.000000 1.000000 0.000000
v 1.000000 1.000000 0.000000
v 0.000000 0.000000 -1.000000
v -0.195090 -0.195090 -0.980785
v 0.195090 -0.195090 -0.980785
v -0.382683 -0.382683 -0.923880
v 0.382683 -0.382683 -0.923880
v -0.555570 -0.555570 -0.831470
v 0.555570 -0.555570 -0.831470
v -0.707107 -0.707107 -0.707107
v 0.707107 -0.707107 -0.707107
v -0.831470 -0.831470 -0.555570
v 0.831470 -0.831470 -0.555570
v -0.923880 -0.923879 -0.382683
v 0.923879 -0.923880 -0.382683
v -0.980785 -0.980785 -0.195090
v 0.980785 -0.980785 -0.195090
v -0.980785 -0.980785 0.195090
v 0.980785 -0.980785 0.195090
v -0.923880 -0.923879 0.382683
v 0.923879 -0.923880 0.382683
v -0.831470 -0.831470 0.555570
v 0.831470 -0.831470 0.555570
v -0.707107 -0.707107 0.707107
v 0.707107 -0.707107 0.707107
v -0.555570 -0.555570 0.831470
v 0.555570 -0.555570 0.831470
v -0.382683 -0.382683 0.923880
v 0.382683 -0.382683 0.923880
v -0.195090 -0.195090 0.980785
v 0.195090 -0.195090 0.980785
v 0.000000 0.000000 1.000000
v -0.195090 0.195090 0.980785
v 0.195090 0.195090 0.980785
v -0.382683 0.382683 0.923880
v 0.382683 0.382683 0.923880
v -0.555570 0.555570 0.831470
v 0.555570 0.555570 0.831470
v -0.707107 0.707107 0.707107
v 0.707107 0.707107 0.707107
v -0.831470 0.831470 0.555570
v 0.831470 0.831470 0.555570
v -0.923879 0.923880 0.382683
v 0.923880 0.923879 0.382683
v -0.980785 0.980785 0.195090
v 0.980785 0.980785 0.195090
v -0.980785 0.980785 -0.195090
v 0.980785 0.980785 -0.195090
v -0.923879 0.923880 -0.382683
v 0.923880 0.923879 -0.382683
v -0.831470 0.831470 -0.555570
v 0.831470 0.831470 -0.555570
v -0.707107 0.707107 -0.707107
v 0.707107 0.707107 -0.707107
v -0.555570 0.555570 -0.831470
v 0.555570 0.555570 -0.831470
v -0.382683 0.382683 -0.923880
v 0.382683 0.382683 -0.923880
v -0.195090 0.195090 -0.980785
v 0.195090 0.195090 -0.980785
vn -0.0000 -0.0980 -0.9952
vn -0.0000 -0.2903 -0.9569
vn -0.0000 -0.4714 -0.8819
vn -0.0000 -0.6344 -0.7730
vn -0.0000 -0.7730 -0.6344
vn -0.0000 -0.8819 -0.4714
vn -0.0000 -0.9569 -0.2903
vn -0.0000 -0.9952 -0.0980
vn -0.0000 -0.9952 0.0980
vn -0.0000 -0.9569 0.2903
vn -0.0000 -0.8819 0.4714
vn -0.0000 -0.7730 0.6344
vn -0.0000 -0.6344 0.7730
vn -0.0000 -0.4714 0.8819
vn -0.0000 -0.2903 0.9569
vn -0.0000 -0.0980 0.9952
vn -0.0000 0.0980 0.9952
vn -0.0000 0.2903 0.9569
vn -0.0000 0.4714 0.8819
vn -0.0000 0.6344 0.7730
vn -0.0000 0.7730 0.6344
vn -0.0000 0.8819 0.4714
vn -0.0000 0.9569 0.2903
vn -0.0000 0.9952 0.0980
vn -0.0000 0.9952 -0.0980
vn -0.0000 0.9569 -0.2903
vn -0.0000 0.8819 -0.4714
vn -0.0000 0.7730 -0.6344
vn -0.0000 0.6344 -0.7730
vn -0.0000 0.4714 -0.8819
vn -0.0000 0.2903 -0.9569
vn -0.0000 0.0980 -0.9952
vn 0.0980 -0.0000 -0.9952
vn 0.2903 -0.0000 -0.9569
vn 0.4714 -0.0000 -0.8819
vn 0.6344 -0.0000 -0.7730
vn 0.7730 -0.0000 -0.6344
vn 0.8819 -0.0000 -0.4714
vn 0.9569 -0.0000 -0.2903
vn 0.9952 -0.0000 -0.0980
vn 0.9952 -0.0000 0.0980
vn 0.9569 -0.0000 0.2903
vn 0.8819 -0.0000 0.4714
vn 0.7730 -0.0000 0.6344
vn 0.6344 -0.0000 0.7730
vn 0.4714 -0.0000 0.8819
vn 0.2903 -0.0000 0.9569
vn 0.0980 -0.0000 0.9952
vn -0.0980 -0.0000 0.9952
vn -0.2903 -0.0000 0.9569
vn -0.4714 -0.0000 0.8819
vn -0.6344 -0.0000 0.7730
vn -0.7730 -0.0000 0.6344
vn -0.8819 -0.0000 0.4714
vn -0.9569 -0.0000 0.2903
vn -0.9952 -0.0000 0.0980
vn -0.9952 -0.0000 -0.0980
vn -0.9569 -0.0000 -0.2903
vn -0.8819 -0.0000 -0.4714
vn -0.7730 -0.0000 -0.6344
vn -0.6344 -0.0000 -0.7730
vn -0.4714 -0.0000 -0.8819
vn -0.2903 -0.0000 -0.9569
vn -0.0980 -0.0000 -0.9952
vt 1.000000 0.750000
vt 0.968750 0.798773
vt 0.968750 0.701227
vt 0.937500 0.845671
vt 0.937500 0.654329
vt 0.906250 0.888893
vt 0.906250 0.611107
vt 0.875000 0.926777
vt 0.875000 0.573223
vt 0.843750 0.957867
vt 0.843750 0.542133
vt 0.812500 0.980970
vt 0.812500 0.519030
vt 0.781250 0.995196
vt 0.781250 0.504804
vt 0.750000 0.500000
vt 0.750000 1.000000
vt 0.718750 0.995196
vt 0.718750 0.504804
vt 0.687500 0.980970
vt 0.687500 0.519030
vt 0.656250 0.957867
vt 0.656250 0.542133
vt 0.625000 0.926777
vt 0.625000 0.573223
vt 0.593750 0.888893
vt 0.593750 0.611107
vt 0.562500 0.845671
vt 0.562500 0.654329
vt 0.531250 0.798773
vt 0.531250 0.701227
vt 0.500000 0.750000
vt 0.468750 0.798773
vt 0.468750 0.701227
vt 0.437500 0.845671
vt 0.437500 0.654329
vt 0.406250 0.888893
vt 0.406250 0.611107
vt 0.375000 0.926777
vt 0.375000 0.573223
vt 0.343750 0.957867
vt 0.343750 0.542133
vt 0.312500 0.980970
vt 0.312500 0.519030
vt 0.281250 0.995196
vt 0.281250 0.504804
vt 0.250000 0.500000
vt 0.250000 1.000000
vt 0.218750 0.995196
vt 0.218750 0.504804
vt 0.187500 0.980970
vt 0.187500 0.519030
vt 0.156250 0.957867
vt 0.156250 0.542133
vt 0.125000 0.926777
vt 0.125000 0.573223
vt 0.093750 0.888893
vt 0.093750 0.611107
vt 0.062500 0.845671
vt 0.062500 0.654329
vt 0.031250 0.798773
vt 0.031250 0.701227
vt 0.000000 0.750000
vt 0.937500 0.845671
vt 0.875000 0.926777
vt 0.843750 0.957867
vt 0.812500 0.980970
vt 0.781250 0.995196
vt 0.718750 0.995196
vt 0.718750 0.504804
vt 0.625000 0.926777
vt 0.625000 0.573223
vt 0.593750 0.888893
vt 0.562500 0.654329
vt 0.375000 0.926777
vt 0.343750 0.957867
vt 0.312500 0.980970
vt 0.281250 0.995196
vt 0.218750 0.504804
vt 0.187500 0.980970
vt 0.125000 0.573223
vt 0.125000 0.926777
vt 0.093750 0.888893
s 0
f 5/1/1 7/2/1 6/3/1
f 7/2/2 9/4/2 8/5/2 6/3/2
f 9/4/3 11/6/3 10/7/3 8/5/3
f 11/6/4 13/8/4 12/9/4 10/7/4
f 15/10/5 14/11/5 12/9/5 13/8/5
f 17/12/6 16/13/6 14/11/6 15/10/6
f 19/14/7 18/15/7 16/13/7 17/12/7
f 1/16/8 18/15/8 19/14/8 2/17/8
f 21/18/9 20/19/9 1/16/9 2/17/9
f 23/20/10 22/21/10 20/19/10 21/18/10
f 25/22/11 24/23/11 22/21/11 23/20/11
f 27/24/12 26/25/12 24/23/12 25/22/12
f 29/26/13 28/27/13 26/25/13 27/24/13
f 31/28/14 30/29/14 28/27/14 29/26/14
f 33/30/15 32/31/15 30/29/15 31/28/15
f 34/32/16 32/31/16 33/30/16
f 34/32/17 36/33/17 35/34/17
f 38/35/18 37/36/18 35/34/18 36/33/18
f 40/37/19 39/38/19 37/36/19 38/35/19
f 42/39/20 41/40/20 39/38/20 40/37/20
f 42/39/21 44/41/21 43/42/21 41/40/21
f 44/41/22 46/43/22 45/44/22 43/42/22
f 46/43/23 48/45/23 47/46/23 45/44/23
f 3/47/24 47/46/24 48/45/24 4/48/24
f 3/47/25 4/48/25 50/49/25 49/50/25
f 49/50/26 50/49/26 52/51/26 51/52/26
f 51/52/27 52/51/27 54/53/27 53/54/27
f 53/54/28 54/53/28 56/55/28 55/56/28
f 55/56/29 56/55/29 58/57/29 57/58/29
f 57/58/30 58/57/30 60/59/30 59/60/30
f 59/60/31 60/59/31 62/61/31 61/62/31
f 61/62/32 62/61/32 5/63/32
f 5/1/33 62/2/33 7/3/33
f 7/3/34 62/2/34 60/64/34 9/5/34
f 9/5/35 60/64/35 58/6/35 11/7/35
f 11/7/36 58/6/36 56/65/36 13/9/36
f 54/66/37 15/11/37 13/9/37 56/65/37
f 52/67/38 17/13/38 15/11/38 54/66/38
f 50/68/39 19/15/39 17/13/39 52/67/39
f 2/16/40 19/15/40 50/68/40 4/17/40
f 48/69/41 21/70/41 2/16/41 4/17/41
f 46/20/42 23/21/42 21/70/42 48/69/42
f 44/22/43 25/23/43 23/21/43 46/20/43
f 42/71/44 27/72/44 25/23/44 44/22/44
f 40/73/45 29/27/45 27/72/45 42/71/45
f 38/28/46 31/74/46 29/27/46 40/73/46
f 36/30/47 33/31/47 31/74/47 38/28/47
f 34/32/48 33/31/48 36/30/48
f 35/33/49 32/34/49 34/32/49
f 37/35/50 30/36/50 32/34/50 35/33/50
f 39/37/51 28/38/51 30/36/51 37/35/51
f 41/75/52 26/40/52 28/38/52 39/37/52
f 26/40/53 41/75/53 43/76/53 24/42/53
f 24/42/54 43/76/54 45/77/54 22/44/54
f 22/44/55 45/77/55 47/78/55 20/46/55
f 20/46/56 47/78/56 3/48/56 1/47/56
f 3/48/57 49/49/57 18/79/57 1/47/57
f 16/52/58 18/79/58 49/49/58 51/80/58
f 14/54/59 16/52/59 51/80/59 53/53/59
f 12/81/60 14/54/60 53/53/60 55/82/60
f 10/58/61 12/81/61 55/82/61 57/83/61
f 8/60/62 10/58/62 57/83/62 59/59/62
f 6/62/63 8/60/63 59/59/63 61/61/63
f 5/63/64 6/62/64 61/61/64
