# Blender 4.0.2
# www.blender.org
mtllib snakehead.mtl
o Cube
v 1.000000 1.000000 1.000000
v 1.000000 -1.000000 1.000000
v -1.000000 1.000000 1.000000
v -1.000000 -1.000000 1.000000
v -1.000000 0.000000 1.000000
v 1.000000 0.000000 1.000000
v 1.000000 0.000000 0.272636
v -1.000000 0.000000 0.272636
v 0.363637 -0.318958 -1.267331
v 0.548269 0.099866 -1.654012
v 0.657596 -0.209819 -0.336780
v -0.548269 0.099866 -1.654012
v -0.363637 -0.318958 -1.267331
v -0.657596 -0.209819 -0.336780
v -0.579463 0.895274 -0.690688
v 0.579463 0.895274 -0.690688
v 0.592661 -0.681365 -1.472983
v 0.548269 -0.453257 -1.663223
v -0.548269 -0.453257 -1.663223
v -0.592661 -0.681365 -1.472983
v 0.548269 0.292021 -1.654012
v 0.470643 0.449487 -1.607614
v 0.557091 0.668296 -1.381570
v 0.473588 0.575068 -1.516688
v -0.557091 0.668296 -1.381570
v -0.473588 0.575068 -1.516688
v -0.470643 0.449487 -1.607614
v -0.548269 0.292021 -1.654012
v 0.853223 0.981982 0.113599
v 0.922667 0.999275 0.432688
v 1.000000 0.826576 0.272636
v -0.922667 0.999275 0.432688
v -0.853223 0.981982 0.113599
v -1.000000 0.826576 0.272636
v 1.000000 0.000000 -0.087059
v 0.548269 -0.167717 -1.517053
v -0.548269 -0.167717 -1.517053
v -1.000000 0.000000 -0.087059
v 0.861417 -0.011854 -0.188130
v 0.473542 -0.155863 -1.415982
v -0.473542 -0.155863 -1.415982
v -0.861417 -0.011854 -0.188130
v -0.932348 -0.947080 -0.017283
v -1.000000 -1.000000 0.567344
v -1.000000 -0.705291 0.272636
v 1.000000 -1.000000 0.567344
v 0.932348 -0.947080 -0.017283
v 1.000000 -0.705291 0.272636
vn -0.9992 0.0394 -0.0094
vn -0.0000 -0.0000 1.0000
vn -0.0000 -0.9837 -0.1796
vn -0.0000 0.9942 -0.1072
vn 1.0000 -0.0000 -0.0000
vn 0.9732 -0.0343 -0.2276
vn -0.0000 -1.0000 -0.0000
vn -0.9732 -0.0343 -0.2276
vn -0.0000 0.9500 -0.3121
vn -0.9387 0.1686 -0.3008
vn 0.9387 0.1686 -0.3008
vn -0.0000 -0.9980 -0.0636
vn -0.0000 0.4557 -0.8901
vn -0.9546 0.2137 -0.2073
vn -0.0000 -0.6405 -0.7680
vn -0.0000 -0.0000 -1.0000
vn -0.5622 0.4763 -0.6761
vn -0.0000 0.8231 -0.5679
vn 0.5622 0.4763 -0.6761
vn -0.0000 0.2826 -0.9592
vn -0.0000 0.5865 -0.8100
vn -0.0000 1.0000 -0.0013
vn 0.9546 0.2137 -0.2073
vn 0.8078 0.5524 -0.2057
vn -0.8078 0.5524 -0.2057
vn -0.0000 0.9985 -0.0541
vn 0.9992 0.0394 -0.0094
vn -0.0000 0.9932 -0.1165
vn -0.7452 0.6475 0.1595
vn 0.7452 0.6475 0.1595
vn -0.0000 0.6736 0.7391
vn -0.0000 0.6005 -0.7997
vn -0.9842 -0.1252 -0.1252
vn 0.9842 -0.1252 -0.1252
vn -0.0000 -0.9959 -0.0902
vn -1.0000 -0.0000 -0.0000
vt 0.500000 0.000000
vt 0.625000 0.000000
vt 0.625000 0.095196
vt 0.603322 0.125000
vt 0.500000 0.125000
vt 0.500000 0.750000
vt 0.625000 0.750000
vt 0.625000 1.000000
vt 0.500000 1.000000
vt 0.125000 0.512284
vt 0.375000 0.512284
vt 0.375000 0.606280
vt 0.125000 0.606280
vt 0.625000 0.562500
vt 0.875000 0.562500
vt 0.875000 0.613814
vt 0.625000 0.613814
vt 0.375000 0.675647
vt 0.411839 0.625000
vt 0.500000 0.625000
vt 0.375000 0.750000
vt 0.399173 0.500000
vt 0.434865 0.500000
vt 0.500000 0.538283
vt 0.125000 0.675647
vt 0.375000 0.675647
vt 0.125000 0.750000
vt 0.375000 1.000000
vt 0.375000 0.143720
vt 0.411839 0.125000
vt 0.500000 0.211717
vt 0.434865 0.250000
vt 0.399173 0.250000
vt 0.375000 0.237716
vt 0.625000 0.517676
vt 0.875000 0.517676
vt 0.809966 0.538288
vt 0.625000 0.613814
vt 0.603322 0.625000
vt 0.565135 0.500000
vt 0.565135 0.250000
vt 0.600827 0.250000
vt 0.125000 0.500000
vt 0.375000 0.500000
vt 0.589154 0.250000
vt 0.589154 0.500000
vt 0.625000 0.250000
vt 0.618895 0.267912
vt 0.606932 0.267972
vt 0.625000 0.500000
vt 0.618895 0.482088
vt 0.600827 0.500000
vt 0.606932 0.482028
vt 0.625000 0.654804
vt 0.875000 0.654804
vt 0.875000 0.750000
vt 0.626329 0.636120
vt 0.622657 0.125000
vt 0.625000 0.654804
vt 0.488625 0.485942
vt 0.446240 0.453333
vt 0.446240 0.296667
vt 0.488625 0.264058
vt 0.439469 0.480646
vt 0.495396 0.517427
vt 0.495396 0.232573
vt 0.439469 0.269354
vt 0.133457 0.625000
vt 0.125000 0.625000
vt 0.366543 0.575177
vt 0.375000 0.000000
vt 0.375000 0.074353
s 0
usemtl Material
f 5/1/1 3/2/1 32/3/1 34/4/1 8/5/1
f 6/6/2 1/7/2 3/8/2 5/9/2
f 20/10/3 17/11/3 47/12/3 43/13/3
f 16/14/4 15/15/4 33/16/4 29/17/4
f 46/18/5 48/19/5 7/20/5 6/6/5 2/21/5
f 17/11/6 18/22/6 36/23/6 35/24/6 7/20/6 48/19/6 47/12/6
f 44/25/7 46/26/7 2/21/7 4/27/7
f 2/21/2 6/6/2 5/9/2 4/28/2
f 43/29/8 45/30/8 8/5/8 38/31/8 37/32/8 19/33/8 20/34/8
f 23/35/9 25/36/9 15/15/9 16/14/9
f 34/37/10 33/16/10 15/15/10 38/31/10 8/5/10
f 29/38/11 31/39/11 7/20/11 35/24/11 16/14/11
f 10/40/12 35/24/12 38/31/12 12/41/12
f 19/33/13 37/32/13 36/23/13 18/22/13
f 38/31/14 15/15/14 25/36/14 28/42/14 12/41/14
f 17/11/15 20/10/15 19/43/15 18/44/15
f 12/41/16 28/45/16 21/46/16 10/40/16
f 28/42/17 25/47/17 26/48/17 27/49/17
f 25/47/18 23/50/18 24/51/18 26/48/18
f 23/50/19 21/52/19 22/53/19 24/51/19
f 21/46/20 28/45/20 27/49/20 22/53/20
f 26/48/21 24/51/21 22/53/21 27/49/21
f 30/54/22 32/55/22 3/56/22 1/7/22
f 35/24/23 10/40/23 21/52/23 23/35/23 16/14/23
f 29/17/24 30/57/24 31/39/24
f 32/3/25 33/58/25 34/4/25
f 32/55/26 30/54/26 29/17/26 33/16/26
f 7/20/27 31/39/27 30/59/27 1/7/27 6/6/27
f 11/60/28 9/61/28 13/62/28 14/63/28
f 40/64/28 39/65/28 35/24/28 36/23/28
f 42/66/28 41/67/28 37/32/28 38/31/28
f 41/67/28 40/64/28 36/23/28 37/32/28
f 39/65/28 42/66/28 38/31/28 35/24/28
f 9/61/29 11/60/29 39/65/29 40/64/29
f 14/63/30 13/62/30 41/67/30 42/66/30
f 13/62/31 9/61/31 40/64/31 41/67/31
f 11/60/32 14/63/32 42/66/32 39/65/32
f 43/68/33 44/25/33 45/69/33
f 46/26/34 47/70/34 48/19/34
f 46/26/35 44/25/35 43/13/35 47/12/35
f 4/71/36 5/1/36 8/5/36 45/30/36 44/72/36
o çƒä½“.001
v 0.934011 0.525564 -0.586365
v 0.860806 0.525564 -0.659570
v 0.760806 0.525564 -0.686365
v 0.660806 0.525564 -0.659570
v 0.587601 0.525564 -0.586365
v 0.934011 0.438961 -0.536365
v 0.860806 0.375564 -0.572968
v 0.760806 0.352359 -0.586365
v 0.660806 0.375564 -0.572968
v 0.587601 0.438961 -0.536365
v 0.934011 0.438961 -0.436365
v 0.860806 0.375564 -0.399763
v 0.760806 0.352359 -0.386365
v 0.660806 0.375564 -0.399763
v 0.587601 0.438961 -0.436365
v 0.934011 0.525564 -0.386365
v 0.860806 0.525564 -0.313160
v 0.760806 0.525564 -0.286365
v 0.660806 0.525564 -0.313160
v 0.587601 0.525564 -0.386365
v 0.960806 0.525564 -0.486365
v 0.934011 0.612166 -0.436365
v 0.860806 0.675564 -0.399763
v 0.760806 0.698769 -0.386365
v 0.660806 0.675564 -0.399763
v 0.587601 0.612166 -0.436365
v 0.934011 0.612166 -0.536365
v 0.860806 0.675564 -0.572968
v 0.760806 0.698769 -0.586365
v 0.660806 0.675564 -0.572968
v 0.587601 0.612166 -0.536365
v 0.560806 0.525564 -0.486365
v -0.934011 0.525564 -0.586365
v -0.860806 0.525564 -0.659570
v -0.760806 0.525564 -0.686365
v -0.660806 0.525564 -0.659570
v -0.587601 0.525564 -0.586365
v -0.934011 0.438961 -0.536365
v -0.860806 0.375564 -0.572968
v -0.760806 0.352359 -0.586365
v -0.660806 0.375564 -0.572968
v -0.587601 0.438961 -0.536365
v -0.934011 0.438961 -0.436365
v -0.860806 0.375564 -0.399763
v -0.760806 0.352359 -0.386365
v -0.660806 0.375564 -0.399763
v -0.587601 0.438961 -0.436365
v -0.934011 0.525564 -0.386365
v -0.860806 0.525564 -0.313160
v -0.760806 0.525564 -0.286365
v -0.660806 0.525564 -0.313160
v -0.587601 0.525564 -0.386365
v -0.960806 0.525564 -0.486365
v -0.934011 0.612166 -0.436365
v -0.860806 0.675564 -0.399763
v -0.760806 0.698769 -0.386365
v -0.660806 0.675564 -0.399763
v -0.587601 0.612166 -0.436365
v -0.934011 0.612166 -0.536365
v -0.860806 0.675564 -0.572968
v -0.760806 0.698769 -0.586365
v -0.660806 0.675564 -0.572968
v -0.587601 0.612166 -0.536365
v -0.560806 0.525564 -0.486365
vn -0.6547 -0.3780 -0.6547
vn 0.2260 -0.4871 -0.8436
vn 0.9553 -0.1478 -0.2560
vn -0.9553 -0.1478 -0.2560
vn -0.2260 -0.4871 -0.8436
vn 0.6547 -0.3780 -0.6547
vn -0.9553 -0.2956 -0.0000
vn -0.2260 -0.9741 -0.0000
vn 0.6547 -0.7559 -0.0000
vn -0.6547 -0.7559 -0.0000
vn 0.2260 -0.9741 -0.0000
vn 0.9553 -0.2956 -0.0000
vn -0.9553 -0.1478 0.2560
vn -0.2260 -0.4871 0.8436
vn 0.6547 -0.3780 0.6547
vn -0.6547 -0.3780 0.6547
vn 0.2260 -0.4871 0.8436
vn 0.9553 -0.1478 0.2560
vn -0.9553 0.1478 0.2560
vn -0.2260 0.4871 0.8436
vn 0.6547 0.3780 0.6547
vn -0.6547 0.3780 0.6547
vn 0.2260 0.4871 0.8436
vn 0.9553 0.1478 0.2560
vn -0.2260 0.9741 -0.0000
vn 0.6547 0.7559 -0.0000
vn -0.6547 0.7559 -0.0000
vn 0.2260 0.9741 -0.0000
vn 0.9553 0.2956 -0.0000
vn -0.9553 0.2956 -0.0000
vn 0.6547 0.3780 -0.6547
vn -0.6547 0.3780 -0.6547
vn 0.2260 0.4871 -0.8436
vn 0.9553 0.1478 -0.2560
vn -0.9553 0.1478 -0.2560
vn -0.2260 0.4871 -0.8436
vt 0.666667 0.166667
vt 0.666667 0.333333
vt 0.500000 0.333333
vt 0.500000 0.166667
vt 0.666667 0.500000
vt 0.666667 0.666667
vt 0.500000 0.666667
vt 0.500000 0.500000
vt 0.666667 0.833333
vt 0.583333 1.000000
vt 0.500000 0.833333
vt 0.583333 0.000000
vt 0.416667 0.000000
vt 0.333333 0.166667
vt 0.333333 0.500000
vt 0.333333 0.333333
vt 0.333333 0.833333
vt 0.333333 0.666667
vt 0.416667 1.000000
vt 0.250000 0.000000
vt 0.166667 0.166667
vt 0.166667 0.500000
vt 0.166667 0.333333
vt 0.166667 0.833333
vt 0.166667 0.666667
vt 0.250000 1.000000
vt 0.083333 0.000000
vt 0.000000 0.166667
vt 0.000000 0.500000
vt 0.000000 0.333333
vt 0.000000 0.833333
vt 0.000000 0.666667
vt 0.083333 1.000000
vt 1.000000 0.333333
vt 1.000000 0.500000
vt 0.833333 0.500000
vt 0.833333 0.333333
vt 1.000000 0.666667
vt 1.000000 0.833333
vt 0.833333 0.833333
vt 0.833333 0.666667
vt 1.000000 0.166667
vt 0.833333 0.166667
vt 0.916667 1.000000
vt 0.916667 0.000000
vt 0.750000 1.000000
vt 0.750000 0.000000
s 0
f 53/73/37 52/74/37 57/75/37 58/76/37
f 51/77/38 50/78/38 55/79/38 56/80/38
f 49/81/39 69/82/39 54/83/39
f 80/84/40 53/73/40 58/76/40
f 52/74/41 51/77/41 56/80/41 57/75/41
f 50/78/42 49/81/42 54/83/42 55/79/42
f 80/85/43 58/76/43 63/86/43
f 57/75/44 56/80/44 61/87/44 62/88/44
f 55/79/45 54/83/45 59/89/45 60/90/45
f 58/76/46 57/75/46 62/88/46 63/86/46
f 56/80/47 55/79/47 60/90/47 61/87/47
f 54/83/48 69/91/48 59/89/48
f 80/92/49 63/86/49 68/93/49
f 62/88/50 61/87/50 66/94/50 67/95/50
f 60/90/51 59/89/51 64/96/51 65/97/51
f 63/86/52 62/88/52 67/95/52 68/93/52
f 61/87/53 60/90/53 65/97/53 66/94/53
f 59/89/54 69/98/54 64/96/54
f 80/99/55 68/93/55 74/100/55
f 67/95/56 66/94/56 72/101/56 73/102/56
f 65/97/57 64/96/57 70/103/57 71/104/57
f 68/93/58 67/95/58 73/102/58 74/100/58
f 66/94/59 65/97/59 71/104/59 72/101/59
f 64/96/60 69/105/60 70/103/60
f 73/106/61 72/107/61 77/108/61 78/109/61
f 71/110/62 70/111/62 75/112/62 76/113/62
f 74/114/63 73/106/63 78/109/63 79/115/63
f 72/107/64 71/110/64 76/113/64 77/108/64
f 70/111/65 69/116/65 75/112/65
f 80/117/66 74/114/66 79/115/66
f 76/113/67 75/112/67 49/81/67 50/78/67
f 79/115/68 78/109/68 52/74/68 53/73/68
f 77/108/69 76/113/69 50/78/69 51/77/69
f 75/112/70 69/118/70 49/81/70
f 80/119/71 79/115/71 53/73/71
f 78/109/72 77/108/72 51/77/72 52/74/72
f 85/73/42 90/76/42 89/75/42 84/74/42
f 83/77/41 88/80/41 87/79/41 82/78/41
f 81/81/40 86/83/40 101/82/40
f 112/84/39 90/76/39 85/73/39
f 84/74/38 89/75/38 88/80/38 83/77/38
f 82/78/37 87/79/37 86/83/37 81/81/37
f 112/85/48 95/86/48 90/76/48
f 89/75/47 94/88/47 93/87/47 88/80/47
f 87/79/46 92/90/46 91/89/46 86/83/46
f 90/76/45 95/86/45 94/88/45 89/75/45
f 88/80/44 93/87/44 92/90/44 87/79/44
f 86/83/43 91/89/43 101/91/43
f 112/92/54 100/93/54 95/86/54
f 94/88/53 99/95/53 98/94/53 93/87/53
f 92/90/52 97/97/52 96/96/52 91/89/52
f 95/86/51 100/93/51 99/95/51 94/88/51
f 93/87/50 98/94/50 97/97/50 92/90/50
f 91/89/49 96/96/49 101/98/49
f 112/99/60 106/100/60 100/93/60
f 99/95/59 105/102/59 104/101/59 98/94/59
f 97/97/58 103/104/58 102/103/58 96/96/58
f 100/93/57 106/100/57 105/102/57 99/95/57
f 98/94/56 104/101/56 103/104/56 97/97/56
f 96/96/55 102/103/55 101/105/55
f 105/106/64 110/109/64 109/108/64 104/107/64
f 103/110/63 108/113/63 107/112/63 102/111/63
f 106/114/62 111/115/62 110/109/62 105/106/62
f 104/107/61 109/108/61 108/113/61 103/110/61
f 102/111/66 107/112/66 101/116/66
f 112/117/65 111/115/65 106/114/65
f 108/113/68 82/78/68 81/81/68 107/112/68
f 111/115/67 85/73/67 84/74/67 110/109/67
f 109/108/72 83/77/72 82/78/72 108/113/72
f 107/112/71 81/81/71 101/118/71
f 112/119/70 85/73/70 111/115/70
f 110/109/69 84/74/69 83/77/69 109/108/69
